<?xml version="1.0" encoding="UTF-8" standalone="no"?>
<svg
   xmlns:dc="http://purl.org/dc/elements/1.1/"
   xmlns:cc="http://creativecommons.org/ns#"
   xmlns:rdf="http://www.w3.org/1999/02/22-rdf-syntax-ns#"
   xmlns:svg="http://www.w3.org/2000/svg"
   xmlns="http://www.w3.org/2000/svg"
   viewBox="0 0 307 614.41333"
   height="614.41333"
   width="307"
   xml:space="preserve"
   id="svg2"
   version="1.1"><metadata
     id="metadata8"><rdf:RDF><cc:Work
         rdf:about=""><dc:format>image/svg+xml</dc:format><dc:type
           rdf:resource="http://purl.org/dc/dcmitype/StillImage" /></cc:Work></rdf:RDF></metadata><defs
     id="defs6" /><g
     transform="matrix(1.3333333,0,0,-1.3333333,0,614.41333)"
     id="g10"><g
       transform="scale(0.1)"
       id="g12"><path
         id="path14"
         style="fill:#f0ac1e;fill-opacity:1;fill-rule:nonzero;stroke:none"
         d="m 0.246094,2636.88 c 5.499996,8.94 3.265626,19.18 4.249996,28.75 2.04297,19.86 3.11329,39.87 3.47657,59.84 0.1875,9.91 2.91794,13.16 13.41794,13.5 99.9924,3.27 200.0154,1.96 300.0274,2.77 37.367,0.31 74.754,0.89 112.082,2.52 11.59,0.51 13.371,-3.21 13.355,-13.62 -0.277,-227.51 -0.214,-455.03 -0.195,-682.54 0,-5.22 -0.195,-10.48 0.383,-15.65 2.949,-26.3 13.641,-35.88 39.941,-35.08 40.02,1.23 79.504,7.97 119.231,12.22 8.941,0.96 12.527,0.23 13.426,-10.41 6.058,-71.41 13.027,-142.75 19.738,-214.11 1.711,-18.14 1.73,-17.86 -16.609,-20.59 -41.223,-6.13 -82.922,-8.87 -123.762,-17.7 -22.988,-4.97 -28.465,-9.96 -26.281,-33.69 3.461,-37.59 8.906,-75.01 13.957,-112.44 9.996,-74.02 20.382,-147.98 30.445,-221.98 7.953,-58.51 15.551,-117.07 23.594,-175.56 1.918,-13.97 10.824,-24.36 19.742,-34.61 2.976,-3.43 6.058,-2.32 9.457,-1.84 66.656,9.31 133.312,18.59 199.965,27.87 21.511,3 43.027,5.91 64.508,9.13 7.707,1.14 11.171,-0.19 12.398,-9.38 14.73,-110.67 33.852,-220.55 61.352,-328.858 34.859,-137.313 82.113,-269.922 148.425,-395.402 1.5,-2.829 4.58,-5.418 2.29,-11.09 -22.2,15.711 -44.3,30.679 -65.657,46.64 -29.598,22.121 -58.387,45.321 -88.043,67.36 -13.574,10.101 -22.238,23.039 -27.512,38.601 -39.371,116.141 -70.66,234.379 -91.808,355.231 -3.59,20.527 -6.512,41.168 -10.527,61.598 -5.727,29.12 -17.188,36.48 -46.641,33.42 -42.332,-4.39 -84.731,-8.02 -126.426,-17.19 -12.469,-2.74 -22.359,-7.58 -24.41,-21.47 -1.277,-8.63 10.582,-31.491 17.723,-35.1 3.402,-1.719 6.808,-0.5 10.207,-0.079 35.773,4.411 71.578,8.579 107.285,13.499 6.836,0.95 8.586,-1.721 9.355,-7.042 0.754,-5.16 0.43,-10.628 2.039,-15.476 3.653,-11.031 -0.449,-14.531 -11.289,-15.492 -22.488,-1.981 -44.918,-4.739 -67.265,-7.91 -9.825,-1.399 -19.567,-4.028 -29.036,-7.071 -13.453,-4.32 -20.261,-15.59 -17.878,-27.867 2.898,-14.941 13.679,-25.082 27.464,-24.832 26.571,0.48 52.774,4.84 78.934,8.93 31.207,4.879 31.133,5.34 37.453,-24.59 3.641,-17.258 3.594,-16.781 -14.609,-18.758 -34.098,-3.711 -68.317,-7.223 -101.094,-18.082 -7.535,-2.5 -11.742,-0.57 -16.641,4.832 -98.148,108.059 -188.097,222.248 -263.691,347.498 -16.66,27.61 -22.848,57.99 -30.449,88.13 -24.567,97.43 -40.567,196.36 -50.199,296.34 -2.793,28.97 -5.227,57.97 -7.821,86.95 -0.039,0.44 0,0.88 -0.039,1.31 -2.812,32.71 -12.207,41.61 -44.847,41.4 -24.852,-0.16 -49.18,-5.37 -73.708,-8.64 -0.859,-0.12 -1.695,-0.41 -2.55,-0.54 -24.367,-3.83 -24.543,-3.88 -31.032,19.42 -12.0035,43.08 -23.3824,86.33 -35.9214,129.24 -3.1055,10.64 0.0234,14.05 9.4648,17.7 89.7346,34.65 159.8126,92.51 204.8396,178.25 94.953,180.81 27.344,413.25 -173.832,508.02 -35.2459,16.6 -72.3943,26.78 -110.452906,34.12 0,16.54 0,33.07 0,49.6" /><path
         id="path16"
         style="fill:#f0ac1e;fill-opacity:1;fill-rule:nonzero;stroke:none"
         d="M 0.246094,2527.24 C 21.4414,2526.6 40.9805,2519.1 60.3242,2511.71 174.848,2467.89 244.977,2386.12 265.508,2264.86 c 21.93,-129.5 -41.86,-258.01 -157.461,-321.91 -14.4025,-7.96 -29.7345,-14.24 -44.5118,-21.55 -7.0704,-3.5 -10.5469,-1.66 -10.9922,6.16 -0.0469,0.86 -0.1758,1.73 -0.3321,2.59 -2.5976,14.49 -11.6796,30.45 -6.5937,42.95 4.8476,11.93 23.0742,15.12 35.0117,22.85 86.3631,55.93 131.8831,135.06 124.4841,237.98 -8.136,113.12 -71.652,187.78 -176.445,228.28 -9.1055,3.52 -17.9102,9 -28.421906,7.6 0,19.14 0,38.28 0,57.43" /><path
         id="path18"
         style="fill:#f0ac1e;fill-opacity:1;fill-rule:nonzero;stroke:none"
         d="M 0.246094,2412.38 C 73.9219,2385.33 127.051,2337.76 144.098,2258.93 165.23,2161.17 115.371,2082.19 41.9688,2037.92 c -5.9961,-3.62 -9.4688,-3.76 -10.1172,4.21 -0.0391,0.44 -0.0235,0.89 -0.168,1.3 -8.9297,25.8 -4.7578,44.28 17.0859,65.92 65.8595,65.24 55.7185,159.98 -19,216.21 -9.3281,7.02 -18.6718,14.21 -29.523406,18.94 0,22.62 0,45.25 0,67.88" /><path
         id="path20"
         style="fill:#f0ac1e;fill-opacity:1;fill-rule:nonzero;stroke:none"
         d="M 2299.81,4.41016 C 2239.8,2.83203 2180.31,2.46094 2120.7,11.7617 1818.95,58.7891 1542.4,173.91 1277.63,321.199 c -30.3,16.86 -62,31.672 -88.76,54.481 -10.05,8.57 -18.29,18.5 -25.39,29.539 -88.93,138.34 -150.13,288.582 -192.14,447.09 -27.961,105.511 -47.91,212.581 -63.043,320.621 -15.305,109.31 -26.234,219.08 -36.641,328.94 -3.07,32.42 -7.933,64.62 -16.957,96.1 -2.254,7.84 -5.406,10.35 -13.445,9.99 -58.402,-2.65 -115.508,-13.72 -172.348,-26.36 -13.355,-2.96 -22.347,-17.1 -19.707,-32.7 10.727,-63.35 16.957,-127.42 30.422,-190.33 3.449,-16.14 14.535,-23.74 30.297,-21.55 15.926,2.22 24.656,12.23 23.766,28.68 -2.219,40.86 -10.286,80.95 -16.641,121.27 -1.961,12.43 -3.445,24.95 -5.625,37.34 -0.934,5.28 -0.285,7.81 5.754,8.77 27.883,4.39 55.723,9.03 83.488,14.09 9.34,1.7 7.668,-5.44 8.18,-9.6 3.129,-25.43 5.73,-50.93 8.461,-76.4 6.715,-62.63 13.281,-125.28 20.258,-187.88 0.879,-7.88 0.226,-11.3 -9.086,-12.54 -74.055,-9.72 -148.024,-20.07 -221.989,-30.46 -7.507,-1.06 -10.523,0.23 -11.64,8.68 -10.914,82.21 -22.352,164.36 -33.653,246.53 -9.05,65.82 -17.949,131.66 -27.39,197.43 -1.184,8.23 -0.301,11.32 8.742,12.47 55.992,7.18 111.922,14.88 167.832,22.65 37.418,5.2 74.813,10.61 112.148,16.34 18.305,2.81 27.911,14.88 25.977,31.13 -2.039,17.13 -14.406,27.16 -33.156,24.99 -34.078,-3.94 -68.172,-8.09 -101.992,-13.73 -12.696,-2.12 -15.274,1.24 -16.329,13.1 -7.281,81.78 -15.312,163.5 -23.062,245.25 -0.668,7.03 -2.602,13.73 -5.91,19.86 -5.555,10.31 -13.676,16.06 -26.27,15.64 -40.476,-1.33 -80.402,-7.91 -120.531,-12.4 -12.461,-1.39 -15.434,1.12 -15.203,13.46 0.738,40.01 0.625,80.05 0.039,120.07 -0.152,10.4 2.324,13.92 13.348,14.61 90.625,5.73 181.203,12.21 271.796,18.45 16.192,1.11 26.368,9.79 31.653,24.84 2.765,7.89 3.965,15.98 3.992,24.31 0.285,96.57 0.582,193.15 0.953,289.72 0.024,6.59 -0.312,13.03 -2.754,19.22 -4.164,10.58 -11.07,16.63 -23.164,17.8 -41.168,3.96 -82.426,4.81 -123.726,5.25 -14.332,0.16 -28.653,1.24 -42.981,1.19 -22.808,-0.08 -36.09,-12.1 -39.93,-34.73 -3.222,-19.03 -2.8,-38.25 -1.804,-57.28 1.703,-32.59 2.121,-65.16 2.465,-97.77 0.273,-26.4 14.625,-37.7 38.394,-31.05 9.504,2.65 15.442,8.12 16.551,19.03 3.965,39.1 1.109,78.24 1.637,117.35 0.277,20.38 -2.473,17.42 17.007,17.54 30.02,0.19 60.043,-0.24 90.051,0.24 8.485,0.13 10.879,-2.27 10.985,-10.86 0.89,-77.86 -3.27,-155.65 -3.024,-233.49 0.028,-7.99 -3.301,-8.93 -10.082,-9.21 -62.949,-2.66 -125.89,-5.68 -188.832,-8.57 -17.355,-0.8 -34.754,-1.1 -52.066,-2.47 -8.399,-0.67 -10.836,2.31 -10.332,10.13 0.476,7.36 0.101,14.78 0.101,22.19 -0.004,140.52 0.137,281.05 -0.265,421.57 -0.032,11.3 2.507,14.4 14.199,14.46 90.441,0.42 180.879,1.6 271.316,2.78 7.309,0.09 14.699,1.44 21.864,3.05 6.3,1.42 12.972,3.23 13.246,11.88 0.265,8.34 -3.469,14.43 -10.789,17.79 -10.508,4.82 -21.942,4.71 -33.239,5.09 -21.812,0.72 -21.758,0.75 -17.058,22 35.863,162.37 71.718,324.74 107.5,487.13 1.679,7.62 3.148,15.35 3.816,23.1 1.899,21.92 -1.598,27.13 -22.207,35.24 -20.508,8.06 -42.477,8.76 -63.832,12.23 -50.141,8.14 -100.449,15.25 -150.707,22.67 -8.586,1.26 -17.227,2.3 -25.883,2.84 -11.469,0.73 -23.832,-11.43 -25.992,-25 -2.066,-12.96 5.75,-25.41 18.84,-28.73 32.879,-8.34 66.406,-13.19 99.922,-18.06 31.804,-4.61 63.601,-9.27 95.441,-13.61 10.047,-1.37 13.746,-4.59 10.32,-15.8 -4.668,-15.3 -7.484,-31.25 -9.89,-47.11 -1.41,-9.29 -5.559,-11.14 -13.938,-9.79 -34.715,5.6 -69.562,10.43 -104.23,16.34 -34.699,5.91 -69.547,10.47 -104.524,14.27 -17.136,1.86 -27.847,-5.65 -30.961,-21.86 -2.82,-14.67 5.899,-28.8 21.696,-32.08 24.211,-5.03 48.656,-9.03 73.09,-12.92 44.164,-7.04 88.347,-14 132.632,-20.22 9.368,-1.32 10.262,-4.92 8.477,-12.73 -4.355,-19.04 -8.629,-38.12 -12.023,-57.34 -1.504,-8.52 -5.141,-10.64 -13.192,-9.34 -41.582,6.7 -83.183,13.33 -124.851,19.49 -32.637,4.83 -65.352,9.14 -98.086,13.27 -13.266,1.68 -24.672,-8.21 -27.348,-22.56 -2.699,-14.5 4.945,-27.44 19.223,-30.92 32.945,-8 66.461,-13 99.953,-18.08 39.926,-6.05 79.844,-12.22 119.84,-17.79 7.972,-1.11 8.546,-3.6 6.925,-10.85 -17.293,-77.55 -34.222,-155.17 -51.046,-232.82 -1.711,-7.9 -4.743,-11.31 -13.708,-11.26 -125.285,0.77 -250.582,0.19 -375.851,1.81 -94.809,1.22 -189.602,2.06 -284.4024,0.75 -12.6953,-0.18 -16.7188,2.82 -14.9375,15.77 5.875,42.59 11.0078,85.28 16.1054,127.97 1.0469,8.76 6.5235,8.52 12.9727,8.58 89.6288,0.71 170.1368,28.61 240.1528,84.22 81.414,64.68 132.136,149.02 145.714,252.17 21.485,163.23 -43.078,289.55 -174.316,384.35 -9.824,7.1 -11.238,11.92 -6.027,22.69 18.343,37.94 36.519,75.95 55.847,113.41 4.707,9.13 8.887,11.16 18.907,7.46 221.253,-81.53 442.632,-162.73 664.023,-243.9 70.937,-26.01 141.937,-51.85 212.977,-77.59 22.5,-8.14 41.16,-21.39 58.56,-37.85 60.06,-56.83 132.14,-93.49 208.66,-122.87 133.36,-51.21 214.1,-149.77 248.2,-286.21 24.68,-98.71 13.12,-194.12 -46.29,-279.25 -73.6,-105.48 -176.35,-154.76 -304.75,-151.32 -57.52,1.55 -111.97,13.89 -161.37,44.49 -74.3,46.03 -101.44,114.22 -91.22,198.13 5.96,48.98 20.61,95.04 51.09,134.85 51.08,66.71 148.06,80.44 209.78,29.63 12.6,-10.37 22.87,-22.4 25.45,-39.61 2.43,-16.27 -1.56,-29.94 -13.31,-41.56 -13.61,-13.45 -27.43,-26.69 -39.37,-41.74 -7.64,-9.61 -14.04,-19.92 -18.16,-31.48 -8.94,-25.08 -4.43,-44 13.7,-58.72 16.88,-13.69 42.66,-15.44 62.44,-3.95 32.94,19.13 54.27,48.18 69.56,82.26 11.81,26.35 19.68,54.04 22.71,82.58 2.4,22.71 -3.83,44.85 -11.77,66.2 -30.96,83.25 -116.5,143.15 -198.95,137.86 -51.99,-3.33 -96.64,-26.51 -134.3,-60.6 -95.93,-86.82 -148.73,-194.55 -147.47,-325.45 1.08,-111.89 71.01,-199.54 181.67,-231.98 44.97,-13.19 91.33,-16.52 137.57,-20.97 58.37,-5.61 116.74,-10.96 173.5,-27.03 105.76,-29.95 175.41,-98.6 214.98,-199.67 17.9,-45.72 30.04,-93.03 27.85,-142.26 -5.1,-114.63 -47.67,-211.86 -139.43,-284.04 -34.95,-27.49 -75.39,-42.53 -120.13,-45.48 -75.59,-4.98 -150.35,-2.8 -222.35,24.55 -75.05,28.49 -130.09,77.35 -156.79,154.79 -43,124.69 46.66,217.28 135.27,236.52 52.71,11.45 105.91,7.98 155.77,-14.32 53.38,-23.89 66.36,-88.33 28.48,-133.19 -15.43,-18.27 -37.43,-20.52 -58.87,-23.95 -9.88,-1.58 -19.71,-3.21 -29.09,-6.79 -15.65,-5.96 -23.44,-20.54 -18.93,-36.57 5.6,-19.88 18.24,-34.11 38.43,-38.85 57.66,-13.52 135.76,16.29 162.52,78.19 5.92,13.69 8.82,28.08 9.2,43.06 0.7,27.9 -0.69,55.45 -7.04,82.85 -13.44,58.01 -48.52,93.85 -105.65,110.7 -61.75,18.21 -124.44,16.47 -187.53,13.94 -43.55,-1.75 -84.24,-11.93 -120.32,-37.02 -61.23,-42.59 -94.62,-102.77 -103.39,-175.4 -11.789,-97.63 16.52,-183.31 86.82,-253.19 37.5,-37.28 85.33,-57.84 133.94,-76.07 69.84,-26.16 142.91,-39.83 215.62,-54.91 32.31,-6.7 64.46,-14.15 96.65,-21.43 59.39,-13.41 102.37,-50.28 136.43,-98.31 49.62,-69.98 75.85,-148.79 84.58,-233.82 5.58,-54.31 1.51,-107.81 -14.79,-159.84 -30.25,-96.57 -96.55,-151.66 -196.12,-167.96 -44.9,-7.35 -89.7,-11.57 -134.66,-1.64 -65.62,14.48 -111.21,54.65 -138.19,114.6 -41.32,91.8 -36.16,180.56 24.17,263.64 13.75,18.95 32.53,28.22 55.73,28.9 23.1,0.67 46.07,-0.55 68.68,-5.74 50.25,-11.55 69.52,-40.36 62.42,-91.37 -4.01,-28.85 -12.6,-56.82 -15.19,-85.89 -2.86,-32.09 18.44,-51.94 50.93,-48.58 24.46,2.53 39.83,15.93 48.86,37.53 15.6,37.34 15.72,76.38 9.86,115.43 -6.62,44.11 -21.12,85.71 -52.1,118.84 -49.11,52.51 -110.57,66.14 -177.89,46.45 -109.15,-31.91 -176.25,-103.58 -195.32,-217.43 -19.28,-115.12 -2.69,-226.87 32.69,-336.56 46.12,-142.988 122.36,-269.531 216.03,-385.77 161.1,-199.922 355.97,-358.578 586.2,-472.918 96.38,-47.8707 196.83,-85.1325 301.45,-110.80044 4.07,-1 8.06,-2.29297 12.08,-3.4414" /><path
         id="path22"
         style="fill:#f0ac1e;fill-opacity:1;fill-rule:nonzero;stroke:none"
         d="m 1485.04,4603.25 c 142.07,4.77 272.35,-21.27 396.48,-76.4 128.89,-57.24 237.35,-140.53 319,-256.89 51.37,-73.19 81.36,-153.6 87.48,-243.26 5.61,-82.24 -4.5,-163 -17.78,-243.75 -15.11,-91.95 -57.25,-169.97 -122.07,-235.73 -59.59,-60.43 -131.76,-101.81 -210.54,-131.97 -82.3,-31.51 -167.85,-47.37 -255.54,-38.85 -100.36,9.76 -198.35,31.41 -286.13,84.96 -84.69,51.66 -132.3,128.74 -150.17,224.87 -34.31,184.6 87.44,373.41 253.78,431.2 115.88,40.27 250.26,-26.42 284.21,-142.81 14.88,-51.07 1.17,-118.06 -58.35,-148.89 -21.44,-11.1 -44.29,-14.92 -67.78,-16.6 -17.34,-1.24 -34.78,-1.18 -52.05,-2.95 -31.54,-3.22 -57.19,-17.38 -74.53,-44.43 -13.98,-21.81 -9.65,-42.61 10.96,-58.23 20.2,-15.29 44.03,-19.71 68.22,-23.45 33.32,-5.14 66.66,-5.97 99.98,-0.73 50.6,7.96 89.54,35.74 118.77,76.01 57.95,79.81 77.38,168.7 55.95,265.52 -7.78,35.16 -28.71,62.95 -53.71,87.82 -60.21,59.9 -130.58,101.91 -214.11,120.3 -98.62,21.72 -188.75,-0.77 -266.68,-61.65 -121.29,-94.73 -203.74,-216.1 -233.97,-369.48 -4.36,-22.13 -4.21,-22.16 -25.68,-15.06 -215.624,71.31 -431.233,142.64 -646.909,213.81 -8.441,2.78 -12.734,4.32 -5.84,14.27 121.074,174.87 267.547,323.16 451.27,432.58 126.929,75.59 263.509,124.15 409.579,146.68 63.77,9.83 127.61,16.11 186.16,13.11" /><path
         id="path24"
         style="fill:#f0ac1e;fill-opacity:1;fill-rule:nonzero;stroke:none"
         d="m 1162.21,3557.42 c -18.64,6.69 -37.32,13.28 -55.92,20.09 -251.142,92.01 -502.255,184.13 -753.505,275.87 -10.519,3.84 -11.074,7.28 -5.566,16.06 14.543,23.19 28.617,46.7 42.195,70.47 4.918,8.61 9.594,10.8 19.555,7.48 130.187,-43.36 260.519,-86.27 390.847,-129.19 98.973,-32.6 197.903,-65.32 297.114,-97.18 12.61,-4.04 17.5,-9.35 19.36,-22.64 6.87,-49.01 22.65,-95.33 45.92,-140.96" /><path
         id="path26"
         style="fill:#f0ac1e;fill-opacity:1;fill-rule:nonzero;stroke:none"
         d="m 376.527,3330.72 c -0.004,-161.13 -112.679,-296.89 -269.691,-328.31 -17.4883,-3.5 -35.0938,-5.91 -52.836,-7.59 -6.875,-0.65 -10.8516,0.6 -9.3867,8.82 2.9023,16.24 5.5273,32.52 8.1172,48.82 1.0156,6.37 5.6679,6.47 10.5898,7.23 100.9257,15.56 175.6677,67.9 219.4497,160.64 54.734,115.95 13.793,248.8 -78.129,323.42 -7.922,6.43 -9.477,11.54 -5.047,20.54 6.308,12.83 11.949,26.09 16.617,39.6 3.301,9.56 6.918,9.56 14.578,4.45 60.813,-40.56 102.039,-96.06 126.574,-164.46 7.207,-20.09 12.188,-40.79 15.59,-61.81 2.922,-18.04 4.395,-36.26 3.574,-51.35" /><path
         id="path28"
         style="fill:#f0ac1e;fill-opacity:1;fill-rule:nonzero;stroke:none"
         d="m 248.609,3331.28 c 2.368,-104.59 -76.871,-189.51 -167.6949,-210.06 -13.5391,-3.06 -14.3008,-2.32 -11.3985,11.42 24.7969,117.3 57.6324,232.31 98.0544,345.18 6.383,17.82 6.328,17.84 20.032,3.93 39.55,-40.15 61.543,-94.39 61.007,-150.47" /><path
         id="path30"
         style="fill:#f0ac1e;fill-opacity:1;fill-rule:nonzero;stroke:none"
         d="m 226.52,1414.64 c -24.848,46.23 -43.59,91.98 -61.575,138.05 -10.105,25.88 -19.367,52.1 -29.504,77.97 -3.054,7.79 -3.476,11.55 6.797,12.39 16.86,1.38 33.586,4.32 50.383,6.51 4.43,0.59 8.484,1.17 8.863,-5.71 4.192,-75.13 15.832,-149.4 25.797,-223.88 0.114,-0.82 -0.218,-1.71 -0.761,-5.33" /><path
         id="path32"
         style="fill:#f0ac1e;fill-opacity:1;fill-rule:nonzero;stroke:none"
         d="m 711.09,753.922 c -7.047,-3.16 -13.004,2.008 -18.957,8.449 -7.942,8.59 -16.438,16.68 -24.692,24.981 -4.925,4.949 -4.558,7.679 3.032,8.597 27.07,3.281 54.117,6.762 81.148,10.352 5.133,0.687 8.52,-0.219 9.027,-6 0.04,-0.43 0.25,-0.832 0.387,-1.25 12.36,-37.711 12.356,-37.68 -26.894,-41.961 -6.879,-0.738 -13.715,-1.871 -23.051,-3.168" /><path
         id="path34"
         style="fill:#f0ac1e;fill-opacity:1;fill-rule:nonzero;stroke:none"
         d="M 5.36328,2273.78 C 37.4727,2245.37 42.8672,2187.4 17.043,2157.91 c -6.4961,38.18 -9.91019,75.78 -11.67972,115.87" /><path
         id="path36"
         style="fill:#f0ac1e;fill-opacity:1;fill-rule:nonzero;stroke:none"
         d="m 794.301,666.75 c -8.367,7.371 -16.778,14.699 -25.078,22.148 -2.684,2.411 -7.375,4.082 -4.657,9.192 3.407,6.41 9.946,5.91 15.801,6.941 4.696,0.828 7.172,-0.82 8.317,-5.601 2.476,-10.43 5.394,-20.758 8.132,-31.121 -0.836,-0.52 -1.675,-1.039 -2.515,-1.559" /></g></g></svg>