<?xml version="1.0" encoding="UTF-8" standalone="no"?>
<svg
   xmlns:dc="http://purl.org/dc/elements/1.1/"
   xmlns:cc="http://creativecommons.org/ns#"
   xmlns:rdf="http://www.w3.org/1999/02/22-rdf-syntax-ns#"
   xmlns:svg="http://www.w3.org/2000/svg"
   xmlns="http://www.w3.org/2000/svg"
   viewBox="0 0 3776.0801 937.66669"
   height="937.66669"
   width="3776.0801"
   xml:space="preserve"
   id="svg2"
   version="1.1"><metadata
     id="metadata8"><rdf:RDF><cc:Work
         rdf:about=""><dc:format>image/svg+xml</dc:format><dc:type
           rdf:resource="http://purl.org/dc/dcmitype/StillImage" /></cc:Work></rdf:RDF></metadata><defs
     id="defs6" /><g
     transform="matrix(1.3333333,0,0,-1.3333333,0,937.66667)"
     id="g10"><g
       transform="scale(0.1)"
       id="g12"><path
         id="path14"
         style="fill:#f0ac1e;fill-opacity:1;fill-rule:nonzero;stroke:none"
         d="m 0.375,4024.2 c 8.39844,13.65 4.98438,29.27 6.48828,43.87 3.11328,30.31 4.74612,60.85 5.30862,91.33 0.2812,15.13 4.4453,20.09 20.4726,20.6 152.6015,5 305.2505,2.99 457.8715,4.23 57.035,0.47 114.097,1.36 171.062,3.85 17.684,0.77 20.399,-4.91 20.383,-20.78 -0.426,-347.22 -0.332,-694.44 -0.305,-1041.65 0,-7.96 -0.297,-16 0.582,-23.87 4.5,-40.16 20.825,-54.78 60.957,-53.55 61.075,1.87 121.336,12.17 181.961,18.66 13.649,1.46 19.114,0.33 20.492,-15.89 9.243,-109 19.883,-217.86 30.125,-326.76 2.602,-27.69 2.637,-27.26 -25.355,-31.42 -62.906,-9.36 -126.543,-13.54 -188.867,-27.03 -35.082,-7.57 -43.442,-15.2 -40.113,-51.4 5.277,-57.38 13.589,-114.48 21.304,-171.6 15.246,-112.96 31.098,-225.83 46.457,-338.77 12.145,-89.3 23.739,-178.67 36.008,-267.93 2.93,-21.31 16.523,-37.16 30.133,-52.83 4.539,-5.22 9.242,-3.52 14.433,-2.8 101.719,14.22 203.447,28.37 305.167,42.55 32.83,4.58 65.67,9.01 98.45,13.91 11.75,1.75 17.05,-0.28 18.92,-14.31 22.48,-168.9 51.66,-336.56 93.63,-501.87 53.19,-209.56 125.32,-411.927 226.51,-603.431 2.28,-4.317 6.99,-8.27 3.5,-16.93 -33.88,23.992 -67.61,46.832 -100.21,71.191 -45.17,33.75 -89.1,69.16 -134.35,102.801 -20.72,15.399 -33.95,35.149 -41.99,58.879 -60.09,177.26 -107.84,357.71 -140.11,542.15 -5.48,31.32 -9.94,62.83 -16.07,94.01 -8.74,44.44 -26.23,55.66 -71.18,50.99 -64.61,-6.71 -129.302,-12.22 -192.935,-26.22 -19.035,-4.19 -34.121,-11.57 -37.257,-32.77 -1.95,-13.18 16.148,-48.06 27.047,-53.58 5.191,-2.62 10.394,-0.75 15.574,-0.11 54.597,6.73 109.241,13.09 163.731,20.6 10.44,1.44 13.1,-2.62 14.28,-10.75 1.15,-7.87 0.65,-16.21 3.1,-23.61 5.58,-16.84 -0.68,-22.18 -17.22,-23.64 -34.31,-3.03 -68.55,-7.24 -102.657,-12.07 -14.988,-2.13 -29.855,-6.17 -44.305,-10.81 -20.531,-6.59 -30.925,-23.78 -27.289,-42.53 4.422,-22.8 20.879,-38.27 41.918,-37.89 40.547,0.75 80.533,7.4 120.463,13.64 47.62,7.44 47.52,8.14 57.16,-37.54 5.56,-26.33 5.48,-25.6 -22.3,-28.62 -52.04,-5.67 -104.26,-11.01 -154.276,-27.6 -11.504,-3.81 -17.926,-0.86 -25.402,7.37 -149.789,164.91 -287.055,339.19 -402.422,530.33 -25.426,42.12 -34.867,88.5 -46.469,134.5 -37.492,148.68 -61.91,299.67 -76.617,452.25 -4.262,44.21 -7.973,88.47 -11.93,132.71 -0.058,0.66 0,1.33 -0.058,1.99 -4.297,49.92 -18.633,63.48 -68.446,63.17 -37.929,-0.24 -75.054,-8.19 -112.48,-13.18 -1.312,-0.18 -2.59,-0.63 -3.898,-0.83 -37.188,-5.84 -37.454,-5.91 -47.36,29.65 -18.312,65.73 -35.687,131.74 -54.816,197.24 -4.742,16.22 0.027,21.43 14.441,26.99 136.949,52.89 243.895,141.19 312.613,272.05 144.907,275.93 41.731,630.65 -265.292,775.3 -53.786,25.33 -110.4732,40.87 -168.563,52.07 0,25.23 0,50.46 0,75.69" /><path
         id="path16"
         style="fill:#f0ac1e;fill-opacity:1;fill-rule:nonzero;stroke:none"
         d="m 0.375,3856.88 c 32.3477,-0.97 62.1719,-12.42 91.6875,-23.71 C 266.84,3766.3 373.859,3641.51 405.195,3456.45 438.664,3258.83 341.316,3062.7 164.891,2965.18 c -21.985,-12.15 -45.375,-21.73 -67.9262,-32.88 -10.7968,-5.34 -16.0937,-2.54 -16.7773,9.39 -0.0742,1.32 -0.2695,2.64 -0.5039,3.95 -3.9648,22.13 -17.8242,46.47 -10.0703,65.55 7.3945,18.21 35.2227,23.07 53.4417,34.87 131.797,85.35 201.265,206.12 189.968,363.19 -12.41,172.64 -109.343,286.58 -269.2769,348.38 -13.8945,5.37 -27.3281,13.74 -43.3711,11.6 0,29.21 0,58.43 0,87.65" /><path
         id="path18"
         style="fill:#f0ac1e;fill-opacity:1;fill-rule:nonzero;stroke:none"
         d="M 0.375,3681.58 C 112.809,3640.3 193.898,3567.71 219.91,3447.4 252.164,3298.22 176.07,3177.67 64.0469,3110.11 c -9.1524,-5.52 -14.4492,-5.72 -15.4414,6.44 -0.0547,0.66 -0.0391,1.35 -0.25,1.97 -13.6328,39.38 -7.2657,67.59 26.0703,100.6 100.5122,99.56 85.0392,244.15 -28.9922,329.96 -14.2461,10.72 -28.4961,21.69 -45.0586,28.91 0,34.53 0,69.06 0,103.59" /><path
         id="path20"
         style="fill:#f0ac1e;fill-opacity:1;fill-rule:nonzero;stroke:none"
         d="M 3509.79,6.73047 C 3418.21,4.32031 3327.41,3.76172 3236.44,17.9414 2775.94,89.7227 2353.89,265.41 1949.82,490.211 c -46.25,25.719 -94.62,48.328 -135.45,83.121 -15.35,13.078 -27.92,28.238 -38.75,45.078 -135.73,211.121 -229.13,440.42 -293.24,682.32 -42.67,161.02 -73.12,324.41 -96.21,489.3 -23.36,166.83 -40.04,334.36 -55.91,502 -4.69,49.49 -12.12,98.62 -25.89,146.66 -3.43,11.98 -8.25,15.81 -20.51,15.26 -89.13,-4.06 -176.28,-20.94 -263.03,-40.23 -20.38,-4.54 -34.103,-26.09 -30.072,-49.91 16.372,-96.68 25.882,-194.46 46.422,-290.47 5.27,-24.62 22.19,-36.24 46.24,-32.88 24.31,3.39 37.63,18.65 36.27,43.75 -3.38,62.37 -15.7,123.56 -25.4,185.08 -2.99,18.97 -5.25,38.08 -8.58,56.99 -1.42,8.07 -0.43,11.93 8.78,13.38 42.55,6.71 85.04,13.79 127.42,21.5 14.24,2.6 11.7,-8.29 12.48,-14.63 4.77,-38.81 8.74,-77.73 12.91,-116.62 10.25,-95.58 20.27,-191.18 30.92,-286.71 1.33,-12.03 0.34,-17.26 -13.87,-19.12 -113.01,-14.86 -225.91,-30.65 -338.78,-46.52 -11.457,-1.6 -16.054,0.36 -17.769,13.25 -16.656,125.48 -34.113,250.85 -51.352,376.25 -13.816,100.45 -27.394,200.93 -41.808,301.29 -1.801,12.56 -0.45,17.28 13.343,19.05 85.457,10.95 170.805,22.69 256.136,34.56 57.1,7.94 114.17,16.17 171.15,24.93 27.94,4.28 42.6,22.71 39.64,47.51 -3.11,26.13 -21.98,41.45 -50.6,38.14 -52.01,-6.02 -104.03,-12.34 -155.65,-20.96 -19.38,-3.23 -23.31,1.89 -24.92,20 -11.11,124.81 -23.37,249.53 -35.2,374.27 -1.02,10.74 -3.97,20.97 -9.01,30.31 -8.48,15.74 -20.874,24.51 -40.092,23.87 -61.774,-2.03 -122.708,-12.08 -183.95,-18.92 -19.015,-2.13 -23.558,1.72 -23.207,20.54 1.141,61.07 0.957,122.17 0.067,183.25 -0.235,15.85 3.543,21.23 20.371,22.29 138.304,8.74 276.541,18.62 414.791,28.15 24.72,1.7 40.25,14.95 48.31,37.92 4.22,12.05 6.05,24.38 6.09,37.09 0.44,147.39 0.89,294.77 1.45,442.16 0.04,10.04 -0.47,19.88 -4.2,29.33 -6.35,16.15 -16.89,25.38 -35.35,27.15 -62.83,6.04 -125.79,7.35 -188.82,8.02 -21.87,0.24 -43.728,1.89 -65.592,1.81 -34.816,-0.12 -55.078,-18.46 -60.933,-53 -4.922,-29.04 -4.277,-58.37 -2.762,-87.41 2.602,-49.73 3.246,-99.44 3.762,-149.21 0.422,-40.28 22.32,-57.53 58.598,-47.39 14.507,4.05 23.566,12.4 25.253,29.05 6.055,59.67 1.696,119.4 2.508,179.08 0.418,31.11 -3.781,26.6 25.946,26.78 45.82,0.28 91.64,-0.37 137.44,0.35 12.94,0.21 16.6,-3.45 16.75,-16.57 1.37,-118.82 -4.99,-237.53 -4.61,-356.33 0.04,-12.19 -5.03,-13.62 -15.39,-14.06 -96.07,-4.04 -192.116,-8.65 -288.171,-13.07 -26.492,-1.21 -53.047,-1.68 -79.465,-3.78 -12.812,-1.01 -16.539,3.53 -15.769,15.47 0.726,11.24 0.152,22.56 0.152,33.85 0,214.46 0.215,428.93 -0.398,643.39 -0.051,17.24 3.82,21.97 21.668,22.06 138.023,0.63 276.043,2.44 414.053,4.24 11.16,0.14 22.44,2.2 33.37,4.66 9.61,2.16 19.8,4.92 20.22,18.12 0.4,12.73 -5.29,22.04 -16.47,27.16 -16.03,7.35 -33.48,7.19 -50.72,7.76 -33.29,1.1 -33.2,1.16 -26.04,33.59 54.73,247.79 109.45,495.58 164.06,743.4 2.57,11.63 4.8,23.43 5.83,35.27 2.89,33.44 -2.44,41.4 -33.89,53.77 -31.3,12.31 -64.83,13.37 -97.42,18.66 -76.52,12.43 -153.3,23.28 -230.001,34.6 -13.094,1.93 -26.289,3.51 -39.492,4.35 -17.504,1.1 -36.372,-17.46 -39.668,-38.16 -3.153,-19.78 8.769,-38.78 28.75,-43.85 50.175,-12.73 101.351,-20.13 152.491,-27.55 48.54,-7.05 97.06,-14.15 145.65,-20.78 15.35,-2.1 20.98,-7 15.76,-24.12 -7.12,-23.34 -11.42,-47.69 -15.1,-71.89 -2.15,-14.17 -8.48,-17 -21.27,-14.94 -52.98,8.54 -106.16,15.92 -159.06,24.93 -52.956,9.02 -106.147,15.98 -159.518,21.78 -26.16,2.84 -42.5,-8.62 -47.254,-33.35 -4.301,-22.39 9.004,-43.96 33.105,-48.97 36.953,-7.67 74.258,-13.78 111.543,-19.72 67.404,-10.74 134.834,-21.36 202.414,-30.85 14.3,-2.02 15.67,-7.51 12.94,-19.43 -6.65,-29.05 -13.17,-58.17 -18.35,-87.51 -2.29,-13 -7.84,-16.23 -20.13,-14.25 -63.46,10.23 -126.95,20.35 -190.534,29.75 -49.808,7.37 -99.738,13.94 -149.691,20.25 -20.25,2.55 -37.657,-12.53 -41.739,-34.43 -4.121,-22.13 7.547,-41.89 29.34,-47.18 50.278,-12.22 101.426,-19.85 152.535,-27.6 60.939,-9.23 121.849,-18.66 182.889,-27.16 12.16,-1.69 13.05,-5.48 10.58,-16.57 -26.4,-118.33 -52.24,-236.79 -77.91,-355.3 -2.62,-12.05 -7.24,-17.25 -20.92,-17.17 -191.197,1.16 -382.42,0.29 -573.596,2.75 -144.691,1.86 -289.359,3.15 -434.0387,1.14 -19.3672,-0.26 -25.5117,4.32 -22.7851,24.07 8.957,65 16.789,130.16 24.5742,195.32 1.5976,13.35 9.957,12.99 19.8008,13.07 136.7808,1.09 259.6488,43.67 366.4918,128.54 124.258,98.7 201.661,227.43 222.383,384.84 32.793,249.11 -65.746,441.89 -266.023,586.56 -14.992,10.83 -17.157,18.19 -9.207,34.63 28,57.91 55.738,115.91 85.234,173.08 7.188,13.93 13.566,17.02 28.859,11.39 337.657,-124.43 675.507,-248.35 1013.377,-372.22 108.26,-39.69 216.62,-79.14 325.04,-118.41 34.33,-12.44 62.8,-32.65 89.35,-57.77 91.67,-86.73 201.67,-142.68 318.45,-187.52 203.52,-78.16 326.73,-228.56 378.79,-436.79 37.66,-150.65 20.01,-296.24 -70.65,-426.16 -112.32,-160.98 -269.13,-236.19 -465.09,-230.94 -87.78,2.36 -170.87,21.2 -246.26,67.9 -113.39,70.24 -154.81,174.3 -139.23,302.36 9.1,74.76 31.47,145.04 77.98,205.79 77.95,101.82 225.95,122.78 320.15,45.24 19.23,-15.83 34.9,-34.19 38.83,-60.46 3.72,-24.82 -2.36,-45.69 -20.31,-63.42 -20.76,-20.52 -41.86,-40.74 -60.09,-63.69 -11.65,-14.68 -21.41,-30.41 -27.7,-48.05 -13.64,-38.28 -6.76,-67.16 20.91,-89.62 25.76,-20.89 65.11,-23.56 95.29,-6.03 50.27,29.21 82.82,73.53 106.14,125.55 18.04,40.2 30.05,82.47 34.67,126.02 3.66,34.66 -5.84,68.44 -17.96,101.04 -47.24,127.03 -177.79,218.45 -303.63,210.38 -79.34,-5.08 -147.48,-40.46 -204.96,-92.48 -146.4,-132.5 -226.98,-296.91 -225.05,-496.68 1.65,-170.76 108.36,-304.51 277.25,-354.04 68.63,-20.11 139.39,-25.2 209.95,-31.99 89.07,-8.56 178.16,-16.72 264.79,-41.26 161.39,-45.7 267.7,-150.48 328.08,-304.71 27.32,-69.78 45.85,-141.97 42.5,-217.11 -7.79,-174.95 -72.75,-323.31 -212.79,-433.47 -53.34,-41.96 -115.05,-64.91 -183.33,-69.4 -115.36,-7.6 -229.45,-4.29 -339.33,37.44 -114.54,43.49 -198.53,118.04 -239.28,236.23 -65.62,190.3 71.2,331.6 206.43,360.96 80.45,17.47 161.63,12.19 237.73,-21.86 81.47,-36.45 101.27,-134.8 43.47,-203.25 -23.55,-27.88 -57.13,-31.32 -89.84,-36.56 -15.08,-2.41 -30.09,-4.9 -44.41,-10.36 -23.87,-9.09 -35.77,-31.34 -28.88,-55.81 8.55,-30.33 27.83,-52.05 58.65,-59.28 87.99,-20.64 207.18,24.86 248.03,119.32 9.03,20.89 13.45,42.85 14.03,65.72 1.07,42.57 -1.05,84.62 -10.74,126.45 -20.51,88.52 -74.05,143.22 -161.24,168.92 -94.24,27.79 -189.91,25.14 -286.19,21.28 -66.46,-2.66 -128.56,-18.21 -183.63,-56.5 -93.44,-64.99 -144.4,-156.85 -157.78,-267.68 -17.99,-148.99 25.21,-279.75 132.5,-386.4 57.23,-56.9 130.22,-88.28 204.42,-116.08 106.57,-39.93 218.1,-60.8 329.05,-83.8 49.31,-10.23 98.38,-21.6 147.49,-32.7 90.64,-20.48 156.24,-76.74 208.22,-150.04 75.73,-106.8 115.75,-227.08 129.08,-356.85 8.51,-82.88 2.3,-164.52 -22.58,-243.93 -46.17,-147.37 -147.35,-231.44 -299.3,-256.32 -68.52,-11.22 -136.89,-17.65 -205.5,-2.51 -100.14,22.11 -169.72,83.41 -210.9,174.89 -63.05,140.09 -55.18,275.56 36.88,402.36 20.99,28.91 49.65,43.06 85.06,44.1 35.26,1.03 70.31,-0.84 104.8,-8.77 76.69,-17.62 106.1,-61.6 95.28,-139.43 -6.12,-44.02 -19.23,-86.72 -23.19,-131.08 -4.37,-48.97 28.15,-79.27 77.72,-74.14 37.33,3.86 60.79,24.31 74.57,57.28 23.82,56.98 24,116.55 15.05,176.15 -10.1,67.31 -32.23,130.81 -79.51,181.37 -74.95,80.12 -168.73,100.93 -271.47,70.89 -166.59,-48.71 -269,-158.08 -298.1,-331.83 -29.42,-175.68 -4.1,-346.22 49.89,-513.62 70.38,-218.24 186.74,-411.35 329.69,-588.749 245.86,-305.09 543.25,-547.231 894.61,-721.719 147.09,-73.051 300.38,-129.9218 460.05,-169.0898 6.21,-1.5313 12.3,-3.50001 18.44,-5.26173" /><path
         id="path22"
         style="fill:#f0ac1e;fill-opacity:1;fill-rule:nonzero;stroke:none"
         d="m 2266.35,7025.13 c 216.82,7.26 415.64,-32.47 605.08,-116.61 196.7,-87.36 362.22,-214.47 486.83,-392.04 78.39,-111.69 124.16,-234.41 133.5,-371.24 8.57,-125.52 -6.87,-248.77 -27.12,-371.99 -23.07,-140.34 -87.37,-259.4 -186.31,-359.75 -90.93,-92.24 -201.08,-155.39 -321.3,-201.42 -125.59,-48.09 -256.16,-72.29 -389.99,-59.28 -153.16,14.88 -302.7,47.93 -436.67,129.65 -129.25,78.84 -201.91,196.48 -229.18,343.19 -52.36,281.72 133.46,569.86 387.31,658.06 176.84,61.45 381.93,-40.32 433.72,-217.95 22.73,-77.94 1.79,-180.17 -89.03,-227.21 -32.73,-16.95 -67.59,-22.78 -103.45,-25.34 -26.45,-1.9 -53.08,-1.81 -79.43,-4.5 -48.14,-4.92 -87.27,-26.53 -113.74,-67.82 -21.34,-33.28 -14.74,-65.02 16.73,-88.86 30.82,-23.34 67.19,-30.08 104.11,-35.79 50.84,-7.85 101.73,-9.1 152.57,-1.11 77.23,12.15 136.65,54.54 181.27,116 88.44,121.81 118.09,257.47 85.38,405.22 -11.88,53.65 -43.82,96.07 -81.96,134.02 -91.89,91.42 -199.29,155.52 -326.76,183.6 -150.51,33.14 -288.05,-1.18 -406.99,-94.09 -185.1,-144.58 -310.93,-329.79 -357.07,-563.87 -6.66,-33.78 -6.43,-33.82 -39.18,-22.98 -329.07,108.81 -658.12,217.68 -987.264,326.28 -12.886,4.26 -19.433,6.6 -8.914,21.8 184.774,266.86 408.308,493.18 688.688,660.15 193.71,115.36 402.15,189.47 625.07,223.85 97.32,15.01 194.75,24.6 284.1,20.03" /><path
         id="path24"
         style="fill:#f0ac1e;fill-opacity:1;fill-rule:nonzero;stroke:none"
         d="m 1773.67,5429.05 c -28.45,10.22 -56.95,20.26 -85.33,30.66 -383.28,140.43 -766.508,281.02 -1149.949,421.02 -16.051,5.85 -16.899,11.1 -8.496,24.5 22.203,35.4 43.675,71.28 64.398,107.56 7.508,13.14 14.645,16.47 29.844,11.41 198.679,-66.17 397.583,-131.67 596.483,-197.17 151.04,-49.74 302.02,-99.68 453.43,-148.29 19.23,-6.18 26.7,-14.28 29.54,-34.56 10.48,-74.8 34.56,-145.49 70.08,-215.13" /><path
         id="path26"
         style="fill:#f0ac1e;fill-opacity:1;fill-rule:nonzero;stroke:none"
         d="m 574.625,5083.07 c 0,-245.89 -171.961,-453.08 -411.582,-501.03 -26.688,-5.34 -53.555,-9.02 -80.6328,-11.58 -10.4922,-0.99 -16.5586,0.92 -14.3204,13.46 4.4258,24.77 8.4297,49.64 12.3868,74.5 1.5429,9.72 8.6484,9.87 16.1562,11.04 154.0272,23.75 268.0972,103.62 334.9062,245.15 83.535,176.97 21.051,379.71 -119.23,493.58 -12.098,9.82 -14.461,17.61 -7.707,31.34 9.628,19.59 18.242,39.82 25.367,60.45 5.035,14.58 10.554,14.58 22.25,6.78 92.804,-61.89 155.715,-146.6 193.16,-250.98 11,-30.66 18.601,-62.25 23.797,-94.34 4.453,-27.53 6.707,-55.32 5.449,-78.37" /><path
         id="path28"
         style="fill:#f0ac1e;fill-opacity:1;fill-rule:nonzero;stroke:none"
         d="m 379.406,5083.93 c 3.614,-159.61 -117.312,-289.22 -255.926,-320.56 -20.66,-4.68 -21.824,-3.54 -17.39,17.43 37.844,179.01 87.957,354.53 149.64,526.77 9.747,27.21 9.657,27.24 30.575,6 60.355,-61.27 93.922,-144.05 93.101,-229.64" /><path
         id="path30"
         style="fill:#f0ac1e;fill-opacity:1;fill-rule:nonzero;stroke:none"
         d="m 345.699,2158.91 c -37.929,70.57 -66.527,140.38 -93.972,210.67 -15.422,39.51 -29.555,79.51 -45.028,119 -4.66,11.89 -5.304,17.63 10.367,18.91 25.735,2.1 51.266,6.59 76.903,9.95 6.758,0.88 12.937,1.77 13.523,-8.73 6.391,-114.64 24.156,-228 39.371,-341.66 0.164,-1.25 -0.343,-2.6 -1.164,-8.14" /><path
         id="path32"
         style="fill:#f0ac1e;fill-opacity:1;fill-rule:nonzero;stroke:none"
         d="m 1085.21,1150.58 c -10.76,-4.82 -19.85,3.07 -28.93,12.89 -12.12,13.11 -25.09,25.44 -37.68,38.11 -7.52,7.56 -6.96,11.73 4.62,13.14 41.31,5.01 82.59,10.31 123.85,15.79 7.83,1.05 13,-0.33 13.78,-9.17 0.06,-0.64 0.37,-1.26 0.58,-1.89 18.86,-57.54 18.86,-57.5 -41.04,-64.03 -10.5,-1.14 -20.93,-2.86 -35.18,-4.84" /><path
         id="path34"
         style="fill:#f0ac1e;fill-opacity:1;fill-rule:nonzero;stroke:none"
         d="m 8.1875,3470.07 c 49.0039,-43.35 57.2305,-131.83 17.8203,-176.83 -9.9101,58.25 -15.1172,115.65 -17.8203,176.83" /><path
         id="path36"
         style="fill:#f0ac1e;fill-opacity:1;fill-rule:nonzero;stroke:none"
         d="m 1212.2,1017.54 c -12.77,11.25 -25.6,22.43 -38.27,33.81 -4.1,3.67 -11.26,6.22 -7.11,14.02 5.2,9.78 15.18,9.02 24.12,10.6 7.16,1.26 10.94,-1.25 12.68,-8.56 3.79,-15.91 8.24,-31.66 12.42,-47.49 -1.28,-0.79 -2.56,-1.59 -3.84,-2.38" /><path
         id="path38"
         style="fill:#f1ad1e;fill-opacity:1;fill-rule:nonzero;stroke:none"
         d="m 3698.43,3110.42 v 530.88 l 1164,1424.09 h -1140 v 678.34 h 2132 v -535.09 l -1156,-1415.66 h 1152 v -682.56 h -2152" /><path
         id="path40"
         style="fill:#f1ad1e;fill-opacity:1;fill-rule:nonzero;stroke:none"
         d="m 5988.84,3120.97 v 1974.98 h 1461 v -486.64 h -888 v -252.79 h 702 v -486.64 h -702 v -262.29 h 888 v -486.62 h -1461" /><path
         id="path42"
         style="fill:#f1ad1e;fill-opacity:1;fill-rule:nonzero;stroke:none"
         d="m 7749.81,3120.97 v 1974.98 h 591 V 3629.72 h 723 v -508.75 h -1314" /><path
         id="path44"
         style="fill:#f1ad1e;fill-opacity:1;fill-rule:nonzero;stroke:none"
         d="m 10587.8,4103.72 c 0,183.27 -40.5,314.91 -121.5,394.98 -81,80.04 -207.5,120.08 -379.5,120.08 H 9939.78 V 3598.12 h 177.02 c 148,0 263.5,40 346.5,120.08 82.9,80.04 124.5,208.55 124.5,385.52 z m 594,18.95 c 0,-151.68 -24,-289.12 -72,-412.36 -48,-123.25 -118.5,-228.62 -211.5,-316 -93,-87.44 -207.5,-154.84 -343.5,-202.25 -136.1,-47.4 -293,-71.09 -471,-71.09 h -735.02 v 1974.98 h 777.02 c 169.9,0 320.5,-23.21 451.5,-69.52 130.9,-46.36 241.5,-112.18 331.5,-197.5 90,-85.32 157.9,-187.53 204,-306.52 46,-119.04 69,-252.3 69,-399.74" /><path
         id="path46"
         style="fill:#f1ad1e;fill-opacity:1;fill-rule:nonzero;stroke:none"
         d="m 12279.8,4650.38 -210,-692.03 h 408 z m 1014,-1529.41 h -585 l -117,369.71 h -636 l -111,-369.71 h -582 l 645,1974.98 h 753 l 633,-1974.98" /><g
         transform="scale(1.10047)"
         id="g48"><path
           id="path50"
           style="fill:#f1ad1e;fill-opacity:1;fill-rule:nonzero;stroke:none"
           d="m 16241.4,3230.85 c -39.1,-100.5 -93.6,-183.32 -163.6,-248.38 -69.9,-65.1 -153.5,-112.97 -250.8,-143.57 -97.2,-30.61 -204,-45.94 -320.3,-45.94 -112.7,0 -217.6,13.41 -314.9,40.19 -97.2,26.79 -181.2,70.36 -252.1,130.65 -70.9,60.3 -126.3,137.82 -166.3,232.58 -40,94.78 -60,210.07 -60,346.02 v 1088.29 h 537.1 V 3611.31 c 0,-120.59 20.9,-209.62 62.7,-267.03 41.8,-57.43 109,-86.15 201.7,-86.15 89,0 153.1,24.85 192.2,74.66 39,49.76 58.6,137.82 58.6,264.17 V 4630.69 H 16300 V 3588.35 c 0,-137.83 -19.5,-256.99 -58.6,-357.5" /></g><g
         transform="scale(1.23428)"
         id="g52"><path
           id="path54"
           style="fill:#f1ad1e;fill-opacity:1;fill-rule:nonzero;stroke:none"
           d="M 15855.2,4128.69 H 16300 V 2513.21 h -508 l -546.9,921.68 v -906.31 h -444.8 v 1600.11 h 515.3 l 539.6,-908.87 v 908.87" /></g><g
         transform="scale(1.36366)"
         id="g56"><path
           id="path58"
           style="fill:#f1ad1e;fill-opacity:1;fill-rule:nonzero;stroke:none"
           d="m 16040.4,2289.83 c -96.8,-23.94 -202.4,-35.92 -316.8,-35.92 -114.4,0 -218.9,16.61 -313.5,49.81 -94.6,33.21 -175.3,81.47 -242,144.83 -66.8,63.33 -118.5,141.73 -155.1,235.21 -36.7,93.45 -55,201.2 -55,323.26 0,120.5 17.6,228.25 52.8,323.26 35.2,95 86.1,174.95 152.9,239.83 66.7,64.89 147.7,114.71 243.1,149.47 95.3,34.76 202.4,52.14 321.2,52.14 46.9,0 94.9,-2.32 144.1,-6.95 49.1,-4.64 97.9,-12.39 146.3,-23.18 48.4,-10.83 94.6,-23.97 138.6,-39.39 44,-15.47 83.6,-34 118.8,-55.62 l -134.2,-375.4 c -71.9,41.72 -139.7,71.83 -203.5,90.38 -63.8,18.54 -128,27.8 -192.5,27.8 -55.8,0 -105.6,-9.26 -149.6,-27.8 -44,-18.55 -81.4,-44.02 -112.2,-76.46 -30.8,-32.45 -54.3,-71.49 -70.4,-117.03 -16.2,-45.58 -24.2,-96.17 -24.2,-151.78 0,-128.25 27.5,-226.33 82.5,-294.29 55,-68.01 143.3,-101.97 265.1,-101.97 29.3,0 60.8,2.33 94.6,6.95 33.7,4.65 61.6,11.59 83.6,20.85 v 146 h -314.6 v 349.9 h 699.6 v -757.74 c -76.3,-40.19 -162.8,-72.23 -259.6,-96.16" /></g><g
         transform="scale(1.47225)"
         id="g60"><path
           id="path62"
           style="fill:#f1ad1e;fill-opacity:1;fill-rule:nonzero;stroke:none"
           d="M 15307.6,2119.87 V 3461.34 H 16300 V 3130.8 h -603.2 v -171.7 h 476.9 v -330.54 h -476.9 V 2450.4 h 603.2 v -330.53 h -992.4" /></g><g
         transform="scale(1.60679)"
         id="g64"><path
           id="path66"
           style="fill:#f1ad1e;fill-opacity:1;fill-rule:nonzero;stroke:none"
           d="m 15930.3,2553.96 c 0,101.54 -21.8,184.28 -65.3,248.26 -43.6,63.95 -107.7,95.93 -192.3,95.93 -85.9,0 -149.4,-31.35 -190.5,-93.97 -41.1,-62.63 -61.6,-143.41 -61.6,-242.29 0,-51.45 5.6,-98.27 16.8,-140.46 11.2,-42.19 27.4,-78.45 48.6,-108.78 21.1,-30.33 47.9,-54.05 80.2,-71.19 32.4,-17.16 69.7,-25.72 112.1,-25.72 84.6,0 147.8,31.64 189.5,94.94 41.7,63.31 62.5,144.4 62.5,243.28 z m 369.7,7.9 c 0,-99.65 -16.2,-189.78 -48.5,-270.41 -32.4,-80.64 -76.9,-148.82 -133.5,-204.54 -56.7,-55.74 -123.3,-98.67 -199.8,-128.81 -76.6,-30.15 -158.4,-45.23 -245.5,-45.23 -87.2,0 -168.7,13.46 -244.6,40.32 -76,26.85 -141.9,66.85 -197.9,119.96 -56.1,53.1 -99.9,119.62 -131.7,199.62 -31.7,79.95 -47.6,173.7 -47.6,281.22 0,100.94 16.2,191.08 48.6,270.42 32.3,79.31 76.8,147.16 133.5,203.54 56.6,56.36 123.2,99.32 199.7,128.82 76.6,29.5 158.4,44.25 245.6,44.25 87.1,0 168.6,-13.13 244.5,-39.34 76,-26.24 141.9,-65.88 198,-118.98 56,-53.1 99.8,-119.66 131.6,-199.61 31.7,-80 47.6,-173.73 47.6,-281.23" /></g><g
         transform="scale(1.73746)"
         id="g68"><path
           id="path70"
           style="fill:#f1ad1e;fill-opacity:1;fill-rule:nonzero;stroke:none"
           d="m 15984,2932.99 h 316 V 1785.36 h -360.9 l -388.5,654.75 v -643.83 h -315.9 v 1136.71 h 366 l 383.3,-645.66 v 645.66" /></g><path
         id="path72"
         style="fill:#f1ad1e;fill-opacity:1;fill-rule:nonzero;stroke:none"
         d="m 15209.6,4420.75 c 0,244.38 -54,419.88 -162,526.66 -108,106.72 -276.7,160.11 -506,160.11 h -196 V 3746.63 h 236 c 197.3,0 351.4,53.32 462,160.1 110.7,106.72 166,278.09 166,514.02 z m 792,25.28 c 0,-202.23 -32,-385.51 -96,-549.83 -64,-164.31 -158,-304.8 -282,-421.32 -124,-116.61 -276.7,-206.47 -458,-269.67 -181.3,-63.19 -390.6,-94.79 -628,-94.79 h -980 v 2633.31 h 1036 c 226.7,0 427.3,-30.94 602,-92.7 174.7,-61.81 322,-149.57 442,-263.33 120,-113.76 210.7,-250.03 272,-408.69 61.3,-158.72 92,-336.4 92,-532.98" /><path
         id="path74"
         style="fill:#f1ad1e;fill-opacity:1;fill-rule:nonzero;stroke:none"
         d="M 5624.84,2340.87 5297.83,912.57 h -641.99 l -330,1421.97 -6,-1453.567 h -543 l 65.99,1974.977 h 849.01 l 294,-1409.36 294,1409.36 h 840 l 66,-1974.977 h -555 l -6,1459.897" /><path
         id="path76"
         style="fill:#f1ad1e;fill-opacity:1;fill-rule:nonzero;stroke:none"
         d="m 7337.81,2410.38 -210,-692.03 h 408 z m 1014,-1529.407 h -585 l -117,369.707 h -636 l -111,-369.707 h -582 l 645,1974.977 h 753 l 633,-1974.977" /><path
         id="path78"
         style="fill:#f1ad1e;fill-opacity:1;fill-rule:nonzero;stroke:none"
         d="m 9311.77,1911.11 c 90,10.52 154.5,35.25 193.5,74.27 39,38.95 58.5,98.44 58.5,178.54 0,73.71 -22.03,128.46 -66,164.32 -44.02,35.8 -120,53.71 -228,53.71 h -162 v -473.99 z m -192,-1030.137 h -591 V 2855.95 h 849 c 261.98,0 460.5,-58.46 595.5,-175.38 135.03,-116.92 202.53,-274.42 202.53,-472.41 0,-126.41 -29.6,-239.67 -88.5,-339.71 -59,-100.08 -151.53,-176.46 -277.53,-229.1 l 465.03,-758.377 h -654.03 l -336,600.387 -165,-15.8 V 880.973" /><path
         id="path80"
         style="fill:#f1ad1e;fill-opacity:1;fill-rule:nonzero;stroke:none"
         d="m 11276.8,2410.38 -210,-692.03 h 408 z m 1014,-1529.407 h -585 l -117,369.707 h -636 l -111,-369.707 h -582 l 645,1974.977 h 753 l 633,-1974.977" /><path
         id="path82"
         style="fill:#f1ad1e;fill-opacity:1;fill-rule:nonzero;stroke:none"
         d="M 13298.7,2347.2 V 880.973 h -591 V 2347.2 h -567 v 508.75 h 1725 V 2347.2 h -567" /><path
         id="path84"
         style="fill:#f1ad1e;fill-opacity:1;fill-rule:nonzero;stroke:none"
         d="m 15314.7,880.973 v 736.267 h -612 V 880.973 h -591 V 2855.95 h 591 v -720.47 h 612 v 720.47 h 591 V 880.973 h -591" /><g
         transform="scale(1.11606)"
         id="g86"><path
           id="path88"
           style="fill:#f1ad1e;fill-opacity:1;fill-rule:nonzero;stroke:none"
           d="m 15767.8,1669.86 c 0,146.19 -31.5,265.31 -94.1,357.43 -62.8,92.06 -155.1,138.11 -276.9,138.11 -123.6,0 -215,-45.13 -274.2,-135.29 -59.1,-90.16 -88.7,-206.46 -88.7,-348.83 0,-74.06 8.1,-141.47 24.2,-202.21 16.2,-60.75 39.4,-112.95 69.9,-156.62 30.4,-43.66 68.9,-77.81 115.6,-102.49 46.5,-24.7 100.3,-37.03 161.3,-37.03 121.8,0 212.7,45.55 272.8,136.69 60,91.15 90.1,207.89 90.1,350.24 z m 532.2,11.38 c 0,-143.46 -23.4,-273.23 -69.9,-389.3 -46.7,-116.1 -110.7,-214.26 -192.2,-294.482 -81.6,-80.245 -177.4,-142.053 -287.6,-185.453 -110.2,-43.397 -228.1,-65.115 -353.5,-65.115 -125.5,0 -242.9,19.373 -352.1,58.045 -109.4,38.661 -204.3,96.247 -284.9,172.713 -80.7,76.442 -143.9,172.212 -189.6,287.392 -45.7,115.1 -68.5,250.07 -68.5,404.88 0,145.32 23.2,275.09 69.9,389.31 46.5,114.19 110.6,211.86 192.2,293.05 81.4,81.13 177.4,142.98 287.6,185.45 110.2,42.47 228,63.71 353.5,63.71 125.3,0 242.7,-18.9 352.1,-56.63 109.2,-37.78 204.3,-94.85 284.9,-171.3 80.7,-76.44 143.9,-172.28 189.6,-287.37 45.6,-115.18 68.5,-250.14 68.5,-404.9" /></g><g
         transform="scale(1.24673)"
         id="g90"><path
           id="path92"
           style="fill:#f1ad1e;fill-opacity:1;fill-rule:nonzero;stroke:none"
           d="M 15859.6,2290.75 H 16300 V 691.409 h -502.9 l -541.4,912.471 V 706.627 h -440.4 V 2290.75 h 510.2 l 534.1,-899.79 v 899.79" /></g><g
         transform="scale(1.6556)"
         id="g94"><path
           id="path96"
           style="fill:#f1ad1e;fill-opacity:1;fill-rule:nonzero;stroke:none"
           d="m 16095.5,1276.75 c 21.9,-18.9 61.7,-35.32 119.5,-49.23 30.7,16.9 52.5,35.55 65.6,55.95 12.9,20.37 19.4,37.04 19.4,49.97 0,32.83 -10.6,58.19 -31.9,76.09 -21.2,17.9 -50.7,26.86 -88.5,26.86 -36.5,0 -65.2,-8.96 -85.8,-26.86 -20.7,-17.9 -31,-40.79 -31,-68.63 0,-23.87 10.9,-45.27 32.7,-64.15" /></g><g
         transform="scale(1.65704)"
         id="g98"><path
           id="path100"
           style="fill:#f1ad1e;fill-opacity:1;fill-rule:nonzero;stroke:none"
           d="m 16117.9,1046.09 c -34.2,-16.91 -58.1,-36.03 -71.7,-57.392 -13.5,-21.382 -20.3,-39.008 -20.3,-52.914 0,-28.833 12.1,-53.173 36.3,-73.038 24.1,-19.892 59.8,-29.814 107,-29.814 41.2,0 73.3,8.432 96.3,25.342 23,16.886 34.5,40.735 34.5,71.548 0,51.66 -60.7,90.418 -182.1,116.268" /></g><g
         transform="scale(1.72421)"
         id="g102"><path
           id="path104"
           style="fill:#f1ad1e;fill-opacity:1;fill-rule:nonzero;stroke:none"
           d="m 15928.4,791.887 c -17,-34.379 -43,-64.243 -78.2,-89.529 -35.1,-25.317 -79.8,-44.903 -134.2,-58.734 -54.4,-13.84 -118.4,-20.775 -192.1,-20.775 -57.7,0 -112.1,5.261 -163.1,15.757 -51,10.498 -95.2,26.013 -132.6,46.554 -37.3,20.526 -67.1,46.562 -89.2,78.077 -22.1,31.516 -33.1,68.761 -33.1,111.739 0,44.878 17.8,84.026 53.5,117.467 35.7,33.417 91.5,57.767 167.4,73.057 -28.4,9.54 -55,20.77 -79.9,33.67 -24.9,12.89 -46.7,28.4 -65.4,46.55 -18.7,18.14 -33.4,38.44 -44.2,60.89 -10.8,22.42 -16.2,47.99 -16.2,76.64 0,41.05 8.3,78.54 24.7,112.46 16.4,33.88 41.6,63.03 75.6,87.38 34,24.35 77.3,43.2 130,56.58 52.7,13.37 115.3,20.06 187.8,20.06 57.8,0 111.1,-5.26 159.8,-15.76 48.7,-10.52 90.9,-26.03 126.6,-46.55 35.7,-20.55 63.4,-46.56 83.3,-78.08 19.8,-31.52 29.7,-68.76 29.7,-111.74 0,-42.97 -16.4,-80.71 -49.3,-113.17 -32.8,-32.48 -83.8,-56.83 -152.9,-73.06 29.4,-8.59 57.2,-19.34 83.3,-32.23 26,-12.89 49,-28.18 68.8,-45.84 19.8,-17.69 35.7,-37.96 47.6,-60.884 11.9,-22.92 17.8,-49.194 17.8,-78.79 0,-40.112 -8.5,-77.357 -25.5,-111.739 z m -960.5,-147.549 h -332.4 v 569.972 l -201.8,-38.49 -5.2,280.4 539.4,100.8 z m -654.3,251.075 c -20.8,-58.641 -51,-108.437 -90.4,-149.367 -39.5,-40.944 -87.3,-72.698 -143.6,-95.301 -56.2,-22.595 -119.2,-33.9 -188.8,-33.9 -69.6,0 -131.9,10.997 -187,32.984 -55.1,21.999 -101.5,53.15 -139.2,93.463 -37.7,40.331 -66.7,89.182 -87,146.629 -20.3,57.407 -30.4,121.559 -30.4,192.429 0,72.08 10.4,136.82 31.3,194.27 20.9,57.41 50.7,106.89 89.6,148.45 38.8,41.52 86.1,73.31 141.8,95.3 55.7,21.99 117.7,32.99 186.2,32.99 69.6,0 132.2,-10.72 187.9,-32.07 55.6,-21.4 102.6,-52.24 140.9,-92.56 38.3,-40.31 67.9,-89.2 88.7,-146.61 20.9,-57.45 31.4,-121.59 31.4,-192.44 0,-70.88 -10.5,-135.624 -31.4,-194.267 z M 12558,644.338 v 229.09 c 72,45.184 133.4,83.383 184.5,114.532 51,31.16 92.8,58.34 125.3,81.56 32.4,23.2 55.9,43.98 70.4,62.31 14.5,18.33 21.8,37.26 21.8,56.83 0,54.97 -38.3,82.46 -114.9,82.46 -35.9,0 -75.9,-8.25 -120,-24.74 -44.1,-16.49 -89.3,-39.41 -135.7,-68.73 l -66.1,250.05 c 26.6,18.22 56.5,34.91 89.6,50.09 33,15.17 67.2,28.51 102.6,40.06 35.4,11.51 71.9,20.33 109.6,26.4 37.7,6.07 74,9.11 108.8,9.11 61.5,0 116,-7.33 163.5,-21.94 47.6,-14.63 87.6,-35.34 120.1,-62.14 32.5,-26.8 56.8,-58.47 73.1,-95.02 16.2,-36.53 24.3,-76.13 24.3,-118.77 0,-63.35 -25.2,-123.66 -75.7,-180.93 -50.4,-57.27 -131.9,-109.654 -244.4,-157.146 h 358.4 l 5.2,-273.076 z m 3301,1018.272 h -3305.4 c -243.6,0 -441,-197.45 -441,-440.99 V 951.927 c 0,-243.55 197.4,-440.984 441,-440.984 H 15859 c 243.6,0 441,197.434 441,440.984 v 269.693 c 0,243.54 -197.4,440.99 -441,440.99" /></g><g
         transform="scale(1.48354)"
         id="g106"><path
           id="path108"
           style="fill:#f1ad1e;fill-opacity:1;fill-rule:nonzero;stroke:none"
           d="m 16148.3,1515.67 c -45.8,0 -82.2,-21.31 -109.2,-63.9 -26.9,-42.6 -40.4,-106.51 -40.4,-191.71 0,-86.63 13.8,-150.53 41.5,-191.7 27.6,-41.2 64.3,-61.78 110.2,-61.78 44.4,0 80.5,20.96 108.1,62.85 27.7,41.87 41.5,105.44 41.5,190.63 0,86.61 -13.8,150.88 -41.5,192.78 -27.6,41.86 -64.3,62.83 -110.2,62.83" /></g></g></g></svg>